<svg width="491" height="388" viewBox="0 0 491 388" fill="none" xmlns="http://www.w3.org/2000/svg">
<circle cx="240" cy="192.727" r="174.545" fill="#1D161B" fill-opacity="0.44"/>
<path fill-rule="evenodd" clip-rule="evenodd" d="M40.4543 52.9035C39.3617 51.762 38.4118 50.3565 39.4426 49.1612C40.5305 47.9028 41.3056 47.005 42.394 45.7462L49.4931 44H58.3426L65.4391 45.7462L68.3339 49.0981C69.7254 50.7094 68.7287 51.5378 67.2507 53.081C62.4738 58.0656 53.9167 67 53.9167 67L40.4543 52.9035ZM65.8746 52.5558C65.8746 52.5558 63.9883 52.9385 63.0248 53.1393C61.9167 53.3716 61.3197 53.0642 61.0011 52.422C60.6939 51.805 59.7441 49.9688 59.7441 49.9688C59.7441 49.9688 60.0039 51.8492 60.0584 52.4791C60.0983 52.9454 60.2306 53.5097 58.7848 54.0621C57.7659 54.4504 55.0873 55.2966 55.0873 55.2966C55.0873 55.2966 57.1039 55.0544 57.632 54.9997C59.6113 54.7934 59.4524 55.7605 59.0452 56.5166C58.182 58.1176 55.1491 63.5089 55.1491 63.5089C58.1129 59.4744 60.8392 54.345 65.8746 52.5558ZM52.8509 63.509C52.8509 63.509 49.8181 58.1176 48.9549 56.5166C48.5471 55.7605 48.3882 54.7935 50.368 54.9998C50.8966 55.0545 52.912 55.2966 52.912 55.2966C52.912 55.2966 50.2341 54.4504 49.2147 54.0622C47.7688 53.5097 47.9016 52.9454 47.9416 52.4791C47.9956 51.8492 48.256 49.9688 48.256 49.9688C48.256 49.9688 47.3056 51.805 46.999 52.422C46.6804 53.0642 46.0828 53.3716 44.9751 53.1394C44.0111 52.9385 42.1254 52.5558 42.1254 52.5558C47.1603 54.345 49.887 59.4744 52.8509 63.509ZM49.3854 48.6638L52.3792 49.3559C52.9459 49.4867 53.3717 49.9341 53.4569 50.4869L54.0006 53.0558L54.5426 50.4869C54.6282 49.9341 55.0542 49.4867 55.6213 49.3559L58.6146 48.6638H49.3854ZM59.8986 48.3103L62.8054 47.8424C63.2666 47.7678 63.7356 47.914 64.0635 48.2338L66.2632 50.385C65.9804 49.8928 65.346 48.9218 64.8728 48.2064C64.5293 47.6868 64.5901 47.0136 65.0207 46.5567L65.2629 46.2992L59.8986 48.3103ZM48.1009 48.3103L45.1941 47.8424C44.7334 47.7678 44.2644 47.914 43.9365 48.2338L41.7369 50.385C42.0192 49.8928 42.6536 48.9218 43.1272 48.2064C43.4712 47.6868 43.4095 47.0136 42.9789 46.5567L42.7367 46.2992L48.1009 48.3103Z" fill="url(#paint0_linear_1_10304)"/>
<path fill-rule="evenodd" clip-rule="evenodd" d="M28.6662 322.646C26.6631 320.512 24.9217 317.884 26.8113 315.649C28.8059 313.297 30.227 311.618 32.2224 309.265L45.2373 306H61.4615L74.4716 309.265L79.7788 315.531C82.3298 318.544 80.5027 320.092 77.7929 322.978C69.0352 332.297 53.3473 349 53.3473 349L28.6662 322.646ZM75.2702 321.996C75.2702 321.996 71.8119 322.711 70.0455 323.087C68.014 323.521 66.9194 322.946 66.3353 321.745C65.7721 320.592 64.0308 317.159 64.0308 317.159C64.0308 317.159 64.5072 320.675 64.6072 321.852C64.6802 322.724 64.9228 323.779 62.2721 324.812C60.4041 325.538 55.4934 327.12 55.4934 327.12C55.4934 327.12 59.1905 326.667 60.1586 326.565C63.7873 326.179 63.4961 327.987 62.7496 329.401C61.167 332.394 55.6066 342.473 55.6066 342.473C61.0403 334.93 66.0386 325.341 75.2702 321.996ZM51.3933 342.473C51.3933 342.473 45.8331 332.394 44.2506 329.401C43.503 327.987 43.2118 326.179 46.8413 326.565C47.8105 326.667 51.5054 327.12 51.5054 327.12C51.5054 327.12 46.5958 325.538 44.727 324.812C42.0762 323.779 42.3196 322.724 42.393 321.852C42.4919 320.675 42.9694 317.159 42.9694 317.159C42.9694 317.159 41.2269 320.592 40.6648 321.746C40.0808 322.946 38.9851 323.521 36.9544 323.087C35.1871 322.711 31.73 321.996 31.73 321.996C40.9605 325.341 45.9596 334.93 51.3933 342.473ZM45.04 314.719L50.5286 316.013C51.5674 316.258 52.3482 317.094 52.5043 318.128L53.501 322.93L54.4948 318.128C54.6516 317.094 55.4328 316.258 56.4724 316.013L61.9602 314.719H45.04ZM64.3142 314.058L69.6432 313.184C70.4887 313.044 71.3485 313.317 71.9497 313.915L75.9825 317.937C75.464 317.017 74.301 315.202 73.4334 313.864C72.8038 312.893 72.9152 311.634 73.7046 310.78L74.1486 310.299L64.3142 314.058ZM42.685 314.058L37.3559 313.184C36.5113 313.044 35.6514 313.317 35.0503 313.915L31.0177 317.937C31.5351 317.017 32.6982 315.202 33.5666 313.864C34.1972 312.893 34.084 311.634 33.2946 310.78L32.8505 310.299L42.685 314.058Z" fill="url(#paint1_linear_1_10304)"/>
<path fill-rule="evenodd" clip-rule="evenodd" d="M420.066 286.581C419.265 285.737 418.569 284.698 419.325 283.815C420.122 282.885 420.691 282.221 421.489 281.291L426.695 280H433.185L438.389 281.291L440.512 283.768C441.532 284.959 440.801 285.571 439.717 286.712C436.214 290.396 429.939 297 429.939 297L420.066 286.581ZM438.708 286.324C438.708 286.324 437.325 286.607 436.618 286.755C435.806 286.927 435.368 286.7 435.134 286.225C434.909 285.769 434.212 284.412 434.212 284.412C434.212 284.412 434.403 285.802 434.443 286.267C434.472 286.612 434.569 287.029 433.509 287.437C432.762 287.724 430.797 288.35 430.797 288.35C430.797 288.35 432.276 288.171 432.663 288.13C434.115 287.978 433.998 288.693 433.7 289.251C433.067 290.435 430.843 294.42 430.843 294.42C433.016 291.438 435.015 287.646 438.708 286.324ZM429.157 294.42C429.157 294.42 426.933 290.435 426.3 289.251C426.001 288.693 425.885 287.978 427.337 288.13C427.724 288.171 429.202 288.35 429.202 288.35C429.202 288.35 427.238 287.724 426.491 287.437C425.43 287.029 425.528 286.612 425.557 286.267C425.597 285.802 425.788 284.412 425.788 284.412C425.788 284.412 425.091 285.769 424.866 286.225C424.632 286.7 424.194 286.927 423.382 286.755C422.675 286.607 421.292 286.324 421.292 286.324C424.984 287.646 426.984 291.438 429.157 294.42ZM426.616 283.447L428.811 283.959C429.227 284.055 429.539 284.386 429.602 284.795L430 286.693L430.398 284.795C430.461 284.386 430.773 284.055 431.189 283.959L433.384 283.447H426.616ZM434.326 283.186L436.457 282.84C436.795 282.785 437.139 282.893 437.38 283.129L438.993 284.719C438.786 284.356 438.32 283.638 437.973 283.109C437.722 282.725 437.766 282.227 438.082 281.89L438.259 281.699L434.326 283.186ZM425.674 283.186L423.542 282.84C423.205 282.785 422.861 282.893 422.62 283.129L421.007 284.719C421.214 284.356 421.679 283.638 422.027 283.109C422.279 282.725 422.234 282.227 421.918 281.89L421.74 281.699L425.674 283.186Z" fill="url(#paint2_linear_1_10304)"/>
<path fill-rule="evenodd" clip-rule="evenodd" d="M438.666 113.646C436.663 111.512 434.922 108.884 436.811 106.649C438.806 104.297 440.227 102.618 442.222 100.265L455.237 97H471.461L484.472 100.265L489.779 106.531C492.33 109.544 490.503 111.092 487.793 113.978C479.035 123.297 463.347 140 463.347 140L438.666 113.646ZM485.27 112.996C485.27 112.996 481.812 113.711 480.045 114.087C478.014 114.521 476.919 113.946 476.335 112.745C475.772 111.592 474.031 108.159 474.031 108.159C474.031 108.159 474.507 111.675 474.607 112.852C474.68 113.724 474.923 114.779 472.272 115.812C470.404 116.538 465.493 118.12 465.493 118.12C465.493 118.12 469.191 117.667 470.159 117.565C473.787 117.179 473.496 118.987 472.75 120.401C471.167 123.394 465.607 133.473 465.607 133.473C471.04 125.93 476.039 116.341 485.27 112.996ZM461.393 133.473C461.393 133.473 455.833 123.394 454.251 120.401C453.503 118.987 453.212 117.179 456.841 117.565C457.811 117.667 461.505 118.12 461.505 118.12C461.505 118.12 456.596 116.538 454.727 115.812C452.076 114.779 452.32 113.724 452.393 112.852C452.492 111.675 452.969 108.159 452.969 108.159C452.969 108.159 451.227 111.592 450.665 112.746C450.081 113.946 448.985 114.521 446.954 114.087C445.187 113.711 441.73 112.996 441.73 112.996C450.96 116.341 455.96 125.93 461.393 133.473ZM455.04 105.719L460.529 107.013C461.567 107.258 462.348 108.094 462.504 109.128L463.501 113.93L464.495 109.128C464.652 108.094 465.433 107.258 466.472 107.013L471.96 105.719H455.04ZM474.314 105.058L479.643 104.184C480.489 104.044 481.349 104.317 481.95 104.915L485.983 108.937C485.464 108.017 484.301 106.202 483.433 104.864C482.804 103.893 482.915 102.634 483.705 101.78L484.149 101.299L474.314 105.058ZM452.685 105.058L447.356 104.184C446.511 104.044 445.651 104.317 445.05 104.915L441.018 108.937C441.535 108.017 442.698 106.202 443.567 104.864C444.197 103.893 444.084 102.634 443.295 101.78L442.851 101.299L452.685 105.058Z" fill="url(#paint3_linear_1_10304)"/>
<path fill-rule="evenodd" clip-rule="evenodd" d="M402.454 35.9035C401.362 34.762 400.412 33.3565 401.443 32.1612C402.53 30.9028 403.306 30.005 404.394 28.7462L411.493 27H420.343L427.439 28.7462L430.334 32.0981C431.725 33.7094 430.729 34.5378 429.251 36.081C424.474 41.0656 415.917 50 415.917 50L402.454 35.9035ZM427.875 35.5558C427.875 35.5558 425.988 35.9385 425.025 36.1393C423.917 36.3716 423.32 36.0642 423.001 35.422C422.694 34.805 421.744 32.9688 421.744 32.9688C421.744 32.9688 422.004 34.8492 422.058 35.4791C422.098 35.9454 422.231 36.5097 420.785 37.0621C419.766 37.4504 417.087 38.2966 417.087 38.2966C417.087 38.2966 419.104 38.0544 419.632 37.9997C421.611 37.7934 421.452 38.7605 421.045 39.5166C420.182 41.1176 417.149 46.5089 417.149 46.5089C420.113 42.4744 422.839 37.345 427.875 35.5558ZM414.851 46.509C414.851 46.509 411.818 41.1176 410.955 39.5166C410.547 38.7605 410.388 37.7935 412.368 37.9998C412.897 38.0545 414.912 38.2966 414.912 38.2966C414.912 38.2966 412.234 37.4504 411.215 37.0622C409.769 36.5097 409.902 35.9454 409.942 35.4791C409.996 34.8492 410.256 32.9688 410.256 32.9688C410.256 32.9688 409.306 34.805 408.999 35.422C408.68 36.0642 408.083 36.3716 406.975 36.1394C406.011 35.9385 404.125 35.5558 404.125 35.5558C409.16 37.345 411.887 42.4744 414.851 46.509ZM411.385 31.6638L414.379 32.3559C414.946 32.4867 415.372 32.9341 415.457 33.4869L416.001 36.0558L416.543 33.4869C416.628 32.9341 417.054 32.4867 417.621 32.3559L420.615 31.6638H411.385ZM421.899 31.3103L424.805 30.8424C425.267 30.7678 425.736 30.914 426.063 31.2338L428.263 33.385C427.98 32.8928 427.346 31.9218 426.873 31.2064C426.529 30.6868 426.59 30.0136 427.021 29.5567L427.263 29.2992L421.899 31.3103ZM410.101 31.3103L407.194 30.8424C406.733 30.7678 406.264 30.914 405.937 31.2338L403.737 33.385C404.019 32.8928 404.654 31.9218 405.127 31.2064C405.471 30.6868 405.409 30.0136 404.979 29.5567L404.737 29.2992L410.101 31.3103Z" fill="url(#paint4_linear_1_10304)"/>
<g filter="url(#filter0_dd_1_10304)">
<path d="M240 120.625L255.081 114.308L240.002 120.732V300.579L378.959 242.349V62.4218L379.637 62.1381L378.959 61.8379V61.5356L378.611 61.6837L241.097 0.727295L100.364 60.676L101.03 60.962L100.364 240.159L240 300.472L240 120.625Z" fill="#F9FAFB"/>
<path d="M240 120.625V300.472L100.364 240.159L101.03 60.962L240 120.625Z" fill="url(#paint5_linear_1_10304)"/>
<path d="M240.003 120.732V300.579L378.96 242.349V61.5356L240.003 120.732Z" fill="url(#paint6_linear_1_10304)"/>
<path d="M240 120.625L379.637 62.1381L241.097 0.727295L100.364 60.676L240 120.625Z" fill="#E1056D"/>
<g filter="url(#filter1_i_1_10304)">
<path d="M112.116 166.437V159.732L130.79 134.957L136.076 136.778V146.323L132.853 145.213L120.282 161.953V162.316L146.348 171.292V178.224L112.116 166.437ZM133.111 182.302V171.62L133.197 168.65V135.786L140.718 138.376V184.921L133.111 182.302ZM169.481 195.712C165.942 194.493 162.905 192.5 160.37 189.733C157.848 186.956 155.907 183.538 154.546 179.478C153.199 175.408 152.526 170.836 152.526 165.76C152.54 160.689 153.221 156.605 154.568 153.508C155.929 150.401 157.87 148.342 160.391 147.332C162.927 146.326 165.957 146.43 169.481 147.643C173.005 148.857 176.035 150.84 178.571 153.592C181.107 156.343 183.048 159.739 184.394 163.779C185.755 167.823 186.436 172.375 186.436 177.436C186.436 182.527 185.755 186.641 184.394 189.779C183.048 192.906 181.107 194.98 178.571 196.001C176.049 197.026 173.019 196.93 169.481 195.712ZM169.481 188.598C172.232 189.545 174.402 188.861 175.992 186.545C177.597 184.218 178.399 180.26 178.399 174.669C178.399 170.972 178.034 167.74 177.303 164.973C176.572 162.206 175.541 159.957 174.209 158.226C172.876 156.479 171.3 155.293 169.481 154.666C166.745 153.724 164.581 154.419 162.991 156.75C161.401 159.066 160.599 162.994 160.584 168.535C160.57 172.242 160.921 175.484 161.637 178.261C162.368 181.043 163.4 183.307 164.732 185.054C166.064 186.785 167.647 187.967 169.481 188.598ZM192.78 194.212V187.507L211.454 162.732L216.741 164.553V174.098L213.517 172.988L200.946 189.728V190.091L227.013 199.067V205.999L192.78 194.212ZM213.775 210.077V199.395L213.861 196.425V163.561L221.382 166.151V212.696L213.775 210.077Z" fill="white"/>
</g>
</g>
<g filter="url(#filter2_b_1_10304)">
<rect x="178.908" y="227.637" width="122.182" height="122.182" rx="61.0909" fill="#344054" fill-opacity="0.4"/>
<path d="M262.908 311.637L253.999 302.728M260.363 287.456C260.363 299.405 250.676 309.092 238.726 309.092C226.777 309.092 217.09 299.405 217.09 287.456C217.09 275.506 226.777 265.819 238.726 265.819C250.676 265.819 260.363 275.506 260.363 287.456Z" stroke="white" stroke-width="4.36364" stroke-linecap="round" stroke-linejoin="round"/>
</g>
<defs>
<filter id="filter0_dd_1_10304" x="56.7274" y="0.727292" width="366.546" height="387.124" filterUnits="userSpaceOnUse" color-interpolation-filters="sRGB">
<feFlood flood-opacity="0" result="BackgroundImageFix"/>
<feColorMatrix in="SourceAlpha" type="matrix" values="0 0 0 0 0 0 0 0 0 0 0 0 0 0 0 0 0 0 127 0" result="hardAlpha"/>
<feMorphology radius="8.72727" operator="erode" in="SourceAlpha" result="effect1_dropShadow_1_10304"/>
<feOffset dy="17.4545"/>
<feGaussianBlur stdDeviation="8.72727"/>
<feColorMatrix type="matrix" values="0 0 0 0 0.0627451 0 0 0 0 0.0941176 0 0 0 0 0.156863 0 0 0 0.03 0"/>
<feBlend mode="normal" in2="BackgroundImageFix" result="effect1_dropShadow_1_10304"/>
<feColorMatrix in="SourceAlpha" type="matrix" values="0 0 0 0 0 0 0 0 0 0 0 0 0 0 0 0 0 0 127 0" result="hardAlpha"/>
<feMorphology radius="8.72727" operator="erode" in="SourceAlpha" result="effect2_dropShadow_1_10304"/>
<feOffset dy="43.6364"/>
<feGaussianBlur stdDeviation="26.1818"/>
<feColorMatrix type="matrix" values="0 0 0 0 0.0627451 0 0 0 0 0.0941176 0 0 0 0 0.156863 0 0 0 0.08 0"/>
<feBlend mode="normal" in2="effect1_dropShadow_1_10304" result="effect2_dropShadow_1_10304"/>
<feBlend mode="normal" in="SourceGraphic" in2="effect2_dropShadow_1_10304" result="shape"/>
</filter>
<filter id="filter1_i_1_10304" x="112.116" y="127.891" width="114.897" height="87.6302" filterUnits="userSpaceOnUse" color-interpolation-filters="sRGB">
<feFlood flood-opacity="0" result="BackgroundImageFix"/>
<feBlend mode="normal" in="SourceGraphic" in2="BackgroundImageFix" result="shape"/>
<feColorMatrix in="SourceAlpha" type="matrix" values="0 0 0 0 0 0 0 0 0 0 0 0 0 0 0 0 0 0 127 0" result="hardAlpha"/>
<feOffset dy="2"/>
<feComposite in2="hardAlpha" operator="arithmetic" k2="-1" k3="1"/>
<feColorMatrix type="matrix" values="0 0 0 0 0 0 0 0 0 0 0 0 0 0 0 0 0 0 0.37 0"/>
<feBlend mode="normal" in2="shape" result="effect1_innerShadow_1_10304"/>
</filter>
<filter id="filter2_b_1_10304" x="170.908" y="219.637" width="138.182" height="138.182" filterUnits="userSpaceOnUse" color-interpolation-filters="sRGB">
<feFlood flood-opacity="0" result="BackgroundImageFix"/>
<feGaussianBlur in="BackgroundImageFix" stdDeviation="4"/>
<feComposite in2="SourceAlpha" operator="in" result="effect1_backgroundBlur_1_10304"/>
<feBlend mode="normal" in="SourceGraphic" in2="effect1_backgroundBlur_1_10304" result="shape"/>
</filter>
<linearGradient id="paint0_linear_1_10304" x1="54" y1="44" x2="54" y2="67" gradientUnits="userSpaceOnUse">
<stop stop-color="white"/>
<stop offset="1" stop-color="#999999"/>
</linearGradient>
<linearGradient id="paint1_linear_1_10304" x1="53.5" y1="306" x2="53.5" y2="349" gradientUnits="userSpaceOnUse">
<stop stop-color="white"/>
<stop offset="1" stop-color="#999999"/>
</linearGradient>
<linearGradient id="paint2_linear_1_10304" x1="430" y1="280" x2="430" y2="297" gradientUnits="userSpaceOnUse">
<stop stop-color="white"/>
<stop offset="1" stop-color="#999999"/>
</linearGradient>
<linearGradient id="paint3_linear_1_10304" x1="463.5" y1="97" x2="463.5" y2="140" gradientUnits="userSpaceOnUse">
<stop stop-color="white"/>
<stop offset="1" stop-color="#999999"/>
</linearGradient>
<linearGradient id="paint4_linear_1_10304" x1="416" y1="27" x2="416" y2="50" gradientUnits="userSpaceOnUse">
<stop stop-color="white"/>
<stop offset="1" stop-color="#999999"/>
</linearGradient>
<linearGradient id="paint5_linear_1_10304" x1="170.182" y1="60.962" x2="170.182" y2="300.472" gradientUnits="userSpaceOnUse">
<stop stop-color="#E1056D"/>
<stop offset="1" stop-color="#7B033C"/>
</linearGradient>
<linearGradient id="paint6_linear_1_10304" x1="309.481" y1="61.5356" x2="309.481" y2="300.579" gradientUnits="userSpaceOnUse">
<stop stop-color="#C1005B"/>
<stop offset="1" stop-color="#5B002B"/>
</linearGradient>
</defs>
</svg>
