<svg width="14" height="12" viewBox="0 0 14 12" fill="none" xmlns="http://www.w3.org/2000/svg">
<path d="M10.8925 0.666627H3.1078C2.75638 0.666615 2.45319 0.666605 2.20348 0.687007C1.93992 0.708541 1.67777 0.756085 1.42552 0.884615C1.04919 1.07636 0.743232 1.38232 0.551485 1.75865C0.487653 1.88392 0.443795 2.01164 0.413179 2.14076L5.00331 5.20085C5.90224 5.80013 6.21524 5.99694 6.53416 6.07336C6.84054 6.14678 7.15993 6.14678 7.46631 6.07336C7.78523 5.99694 8.09823 5.80013 8.99715 5.20085L13.5872 2.14084C13.5566 2.01169 13.5127 1.88395 13.4488 1.75865C13.2571 1.38232 12.9511 1.07636 12.5748 0.884615C12.3226 0.756085 12.0604 0.708541 11.7968 0.687007C11.5471 0.666605 11.2439 0.666615 10.8925 0.666627Z" fill="#84898F"/>
<path d="M13.6668 3.6902L9.63449 6.37847C8.87867 6.88283 8.35684 7.23104 7.77703 7.36999C7.26639 7.49235 6.73407 7.49235 6.22344 7.36999C5.64363 7.23104 5.1218 6.88283 4.36598 6.37847L0.333497 3.69011V8.55899C0.333485 8.91041 0.333475 9.2136 0.353877 9.46331C0.375411 9.72688 0.422955 9.98902 0.551485 10.2413C0.743232 10.6176 1.04919 10.9236 1.42552 11.1153C1.67777 11.2438 1.93992 11.2914 2.20348 11.3129C2.45318 11.3333 2.75633 11.3333 3.10773 11.3333H10.8925C11.2439 11.3333 11.5471 11.3333 11.7968 11.3129C12.0604 11.2914 12.3226 11.2438 12.5748 11.1153C12.9511 10.9236 13.2571 10.6176 13.4488 10.2413C13.5774 9.98902 13.6249 9.72688 13.6465 9.46331C13.6669 9.2136 13.6668 8.91043 13.6668 8.55901V3.6902Z" fill="#84898F"/>
</svg>
