<svg width="14" height="14" viewBox="0 0 14 14" fill="none" xmlns="http://www.w3.org/2000/svg">
<path fill-rule="evenodd" clip-rule="evenodd" d="M2.04151 0.333363C2.01987 0.333363 1.99757 0.33325 1.9747 0.333134C1.72856 0.331884 1.41539 0.330295 1.13459 0.4657C0.900115 0.578763 0.688102 0.775818 0.558217 1.00141C0.403049 1.27091 0.382875 1.56604 0.367284 1.79412L0.363202 1.85249C0.343508 2.12143 0.333496 2.39296 0.333496 2.6667C0.333496 8.74183 5.25836 13.6667 11.3335 13.6667C11.6072 13.6667 11.8788 13.6567 12.1477 13.637L12.2061 13.6329C12.4342 13.6173 12.7293 13.5971 12.9988 13.442C13.2244 13.3121 13.4214 13.1001 13.5345 12.8656C13.6699 12.5848 13.6683 12.2716 13.6671 12.0255C13.667 12.011 13.6669 11.9968 13.6669 11.9828C13.6668 11.9747 13.6668 11.9666 13.6668 11.9587V10.0805L13.667 10.0234C13.6679 9.81734 13.6689 9.55864 13.5782 9.32238C13.5 9.11855 13.3728 8.93706 13.208 8.79385C13.017 8.62786 12.7735 8.54047 12.5795 8.47085L12.5259 8.45151L10.3705 7.66774C10.2385 7.61973 10.1076 7.57209 9.99218 7.53962C9.86362 7.50344 9.71044 7.47254 9.53574 7.48391C9.28952 7.49993 9.05257 7.58396 8.85126 7.72666C8.70844 7.82789 8.60895 7.94839 8.53191 8.05749C8.46276 8.15541 8.3911 8.27488 8.31885 8.39534L8.3136 8.40409L7.58459 9.55239C6.24735 8.85603 5.14532 7.75307 4.44796 6.4155L5.59611 5.68659L5.60483 5.68136C5.7253 5.6091 5.84477 5.53743 5.9427 5.46828C6.0518 5.39124 6.1723 5.29175 6.27354 5.14893C6.41623 4.94763 6.50026 4.71067 6.51628 4.46445C6.52765 4.28975 6.49676 4.13657 6.46057 4.00801C6.4281 3.89262 6.38047 3.76171 6.33245 3.62971L5.54868 1.47434L5.52934 1.42069C5.45972 1.22668 5.37233 0.983194 5.20634 0.792159C5.06313 0.627348 4.88164 0.500227 4.67781 0.421965C4.44155 0.331248 4.18286 0.332335 3.97675 0.333201L3.91971 0.333363H2.04151Z" fill="#84898F"/>
</svg>
